<svg width="255" height="52" viewBox="0 0 255 52" fill="none" xmlns="http://www.w3.org/2000/svg">
<path d="M156.413 15.8447V34.878H152.642V15.8447H156.413Z" fill="#4D4D4D"/>
<path d="M168.723 19.5532C170.501 19.5532 171.937 20.1258 173.033 21.2711C174.128 22.3982 174.676 23.9798 174.676 26.0158V34.878H170.905V26.5339C170.905 25.3341 170.608 24.4161 170.016 23.7798C169.423 23.1254 168.615 22.7981 167.591 22.7981C166.55 22.7981 165.724 23.1254 165.113 23.7798C164.52 24.4161 164.224 25.3341 164.224 26.5339V34.878H160.453V19.7714H164.224V21.6529C164.727 20.9984 165.364 20.4894 166.137 20.1258C166.927 19.7441 167.789 19.5532 168.723 19.5532Z" fill="#4D4D4D"/>
<path d="M177.606 27.3247C177.606 25.7613 177.92 24.3979 178.549 23.2344C179.177 22.0528 180.048 21.1439 181.162 20.5076C182.275 19.8532 183.55 19.5259 184.987 19.5259C186.837 19.5259 188.363 19.9986 189.567 20.9439C190.788 21.871 191.605 23.1799 192.018 24.8705H187.95C187.735 24.2161 187.367 23.7071 186.846 23.3435C186.343 22.9617 185.714 22.7709 184.96 22.7709C183.883 22.7709 183.03 23.1708 182.401 23.9707C181.772 24.7524 181.458 25.8704 181.458 27.3247C181.458 28.7608 181.772 29.8788 182.401 30.6787C183.03 31.4604 183.883 31.8512 184.96 31.8512C186.487 31.8512 187.483 31.1604 187.95 29.7788H192.018C191.605 31.4149 190.788 32.7147 189.567 33.6782C188.345 34.6417 186.819 35.1234 184.987 35.1234C183.55 35.1234 182.275 34.8053 181.162 34.169C180.048 33.5146 179.177 32.6056 178.549 31.4422C177.92 30.2606 177.606 28.8881 177.606 27.3247Z" fill="#4D4D4D"/>
<path d="M201.721 35.1234C200.284 35.1234 198.991 34.8053 197.842 34.169C196.693 33.5146 195.786 32.5965 195.121 31.4149C194.475 30.2333 194.151 28.8699 194.151 27.3247C194.151 25.7795 194.484 24.4161 195.148 23.2344C195.83 22.0528 196.755 21.1439 197.923 20.5076C199.09 19.8532 200.392 19.5259 201.829 19.5259C203.266 19.5259 204.568 19.8532 205.735 20.5076C206.902 21.1439 207.818 22.0528 208.483 23.2344C209.165 24.4161 209.506 25.7795 209.506 27.3247C209.506 28.8699 209.156 30.2333 208.456 31.4149C207.773 32.5965 206.839 33.5146 205.654 34.169C204.487 34.8053 203.176 35.1234 201.721 35.1234ZM201.721 31.7967C202.403 31.7967 203.041 31.6331 203.634 31.3058C204.244 30.9605 204.729 30.4514 205.088 29.7788C205.448 29.1062 205.627 28.2882 205.627 27.3247C205.627 25.8885 205.25 24.7887 204.496 24.0252C203.759 23.2435 202.852 22.8527 201.775 22.8527C200.697 22.8527 199.79 23.2435 199.054 24.0252C198.336 24.7887 197.977 25.8885 197.977 27.3247C197.977 28.7608 198.327 29.8697 199.027 30.6514C199.746 31.4149 200.643 31.7967 201.721 31.7967Z" fill="#4D4D4D"/>
<path d="M231.12 19.5532C232.951 19.5532 234.424 20.1258 235.538 21.2711C236.669 22.3982 237.235 23.9798 237.235 26.0158V34.878H233.463V26.5339C233.463 25.3523 233.167 24.4524 232.574 23.8343C231.982 23.1981 231.173 22.8799 230.15 22.8799C229.126 22.8799 228.309 23.1981 227.698 23.8343C227.106 24.4524 226.809 25.3523 226.809 26.5339V34.878H223.038V26.5339C223.038 25.3523 222.742 24.4524 222.149 23.8343C221.556 23.1981 220.748 22.8799 219.725 22.8799C218.683 22.8799 217.857 23.1981 217.246 23.8343C216.654 24.4524 216.357 25.3523 216.357 26.5339V34.878H212.586V19.7714H216.357V21.5983C216.842 20.9621 217.462 20.4622 218.216 20.0986C218.988 19.735 219.832 19.5532 220.748 19.5532C221.916 19.5532 222.957 19.8077 223.873 20.3167C224.789 20.8076 225.498 21.5165 226.001 22.4437C226.486 21.5711 227.187 20.8712 228.103 20.344C229.036 19.8168 230.042 19.5532 231.12 19.5532Z" fill="#4D4D4D"/>
<path d="M255 26.9975C255 27.5428 254.964 28.0337 254.892 28.4699H243.982C244.072 29.5607 244.449 30.4151 245.114 31.0332C245.778 31.6512 246.595 31.9603 247.565 31.9603C248.966 31.9603 249.963 31.3513 250.555 30.1333H254.623C254.192 31.5876 253.366 32.7874 252.145 33.7327C250.923 34.6598 249.424 35.1234 247.646 35.1234C246.209 35.1234 244.916 34.8053 243.767 34.169C242.635 33.5146 241.746 32.5965 241.1 31.4149C240.471 30.2333 240.157 28.8699 240.157 27.3247C240.157 25.7613 240.471 24.3888 241.1 23.2072C241.728 22.0255 242.608 21.1166 243.74 20.4803C244.871 19.8441 246.173 19.5259 247.646 19.5259C249.065 19.5259 250.331 19.835 251.444 20.4531C252.576 21.0711 253.447 21.9528 254.057 23.0981C254.686 24.2252 255 25.525 255 26.9975ZM251.094 25.9067C251.076 24.9251 250.726 24.1434 250.043 23.5617C249.361 22.9618 248.526 22.6618 247.538 22.6618C246.604 22.6618 245.814 22.9527 245.167 23.5344C244.539 24.0979 244.153 24.8887 244.009 25.9067H251.094Z" fill="#4D4D4D"/>
<path d="M76.2447 21.789C75.9035 21.1528 75.4096 20.671 74.7631 20.3438C74.1345 19.9984 73.3892 19.8257 72.5272 19.8257C71.0366 19.8257 69.8423 20.3256 68.9444 21.3255C68.0464 22.3071 67.5975 23.6251 67.5975 25.2794C67.5975 27.0427 68.0644 28.4243 68.9983 29.4242C69.9501 30.4058 71.2521 30.8967 72.9043 30.8967C74.0357 30.8967 74.9876 30.6058 75.7598 30.0241C76.55 29.4423 77.1247 28.6061 77.4839 27.5154H71.6382V24.0796H81.6593V28.4152C81.3181 29.5787 80.7344 30.6603 79.9083 31.6602C79.1002 32.66 78.0675 33.469 76.8104 34.087C75.5533 34.7051 74.1345 35.0142 72.5541 35.0142C70.6864 35.0142 69.0162 34.6051 67.5436 33.7871C66.0889 32.9509 64.9485 31.7965 64.1224 30.324C63.3142 28.8515 62.9102 27.17 62.9102 25.2794C62.9102 23.3888 63.3142 21.7072 64.1224 20.2348C64.9485 18.7441 66.0889 17.5897 67.5436 16.7717C68.9983 15.9354 70.6595 15.5173 72.5272 15.5173C74.79 15.5173 76.6937 16.0718 78.2381 17.1807C79.8006 18.2896 80.8332 19.8257 81.3361 21.789H76.2447Z" fill="black"/>
<path d="M89.4439 22.1981C89.9826 21.3618 90.6561 20.7074 91.4643 20.2348C92.2724 19.7439 93.1704 19.4985 94.1581 19.4985V24.4341H92.892C91.7426 24.4341 90.8806 24.6886 90.3059 25.1976C89.7312 25.6884 89.4439 26.561 89.4439 27.8153V34.8778H84.8374V19.6621H89.4439V22.1981Z" fill="black"/>
<path d="M103.829 35.096C102.356 35.096 101.027 34.7778 99.8419 34.1416C98.6745 33.5053 97.7496 32.5964 97.0672 31.4148C96.4027 30.2331 96.0705 28.8515 96.0705 27.27C96.0705 25.7066 96.4117 24.3341 97.0941 23.1525C97.7766 21.9527 98.7104 21.0346 99.8957 20.3984C101.081 19.7621 102.41 19.444 103.883 19.444C105.355 19.444 106.684 19.7621 107.87 20.3984C109.055 21.0346 109.989 21.9527 110.671 23.1525C111.354 24.3341 111.695 25.7066 111.695 27.27C111.695 28.8334 111.345 30.2149 110.644 31.4148C109.962 32.5964 109.019 33.5053 107.816 34.1416C106.63 34.7778 105.301 35.096 103.829 35.096ZM103.829 31.0603C104.709 31.0603 105.454 30.733 106.065 30.0786C106.693 29.4242 107.007 28.488 107.007 27.27C107.007 26.052 106.702 25.1158 106.092 24.4613C105.499 23.8069 104.763 23.4797 103.883 23.4797C102.985 23.4797 102.239 23.8069 101.647 24.4613C101.054 25.0976 100.758 26.0338 100.758 27.27C100.758 28.488 101.045 29.4242 101.62 30.0786C102.212 30.733 102.949 31.0603 103.829 31.0603Z" fill="black"/>
<path d="M129.608 19.6621V34.8778H125.002V32.8054C124.535 33.4781 123.897 34.0234 123.089 34.4415C122.299 34.8415 121.419 35.0414 120.449 35.0414C119.3 35.0414 118.285 34.7869 117.405 34.2779C116.525 33.7507 115.843 32.9963 115.358 32.0147C114.873 31.033 114.63 29.8786 114.63 28.5516V19.6621H119.21V27.9244C119.21 28.9424 119.47 29.7332 119.991 30.2968C120.512 30.8603 121.212 31.1421 122.092 31.1421C122.99 31.1421 123.7 30.8603 124.22 30.2968C124.741 29.7332 125.002 28.9424 125.002 27.9244V19.6621H129.608Z" fill="black"/>
<path d="M138.15 21.8163C138.599 21.1073 139.218 20.5347 140.009 20.0984C140.799 19.6621 141.724 19.444 142.783 19.444C144.023 19.444 145.145 19.7621 146.151 20.3984C147.156 21.0346 147.947 21.9436 148.521 23.1252C149.114 24.3068 149.41 25.6793 149.41 27.2427C149.41 28.8061 149.114 30.1877 148.521 31.3875C147.947 32.5691 147.156 33.4871 146.151 34.1416C145.145 34.7778 144.023 35.096 142.783 35.096C141.742 35.096 140.817 34.8778 140.009 34.4415C139.218 34.0052 138.599 33.4417 138.15 32.7509V42.1312H133.543V19.6621H138.15V21.8163ZM144.723 27.2427C144.723 26.0793 144.4 25.1703 143.753 24.5159C143.125 23.8433 142.343 23.5069 141.409 23.5069C140.494 23.5069 139.712 23.8433 139.066 24.5159C138.437 25.1885 138.123 26.1065 138.123 27.27C138.123 28.4334 138.437 29.3514 139.066 30.0241C139.712 30.6967 140.494 31.033 141.409 31.033C142.325 31.033 143.107 30.6967 143.753 30.0241C144.4 29.3333 144.723 28.4061 144.723 27.2427Z" fill="black"/>
<path d="M19.5433 33.3009L16.0066 33.8169C16.8314 29.868 17.9705 24.7486 18.4865 20.8772C18.6465 19.6769 18.7626 18.7008 18.8652 17.8397C19.1894 15.1149 19.3522 13.7472 20.1771 11.7085C20.966 9.75891 23.0613 4.58051 28.5309 1.99632C33.3245 -0.268496 39.0945 0.0996531 43.5892 2.95694C48.5346 6.1007 51.341 11.9769 50.7386 17.9271C50.3363 21.9027 48.4762 24.8549 46.9866 26.6314L44.5764 24.6184C45.783 23.1796 47.2888 20.7964 47.6108 17.6141C47.8337 15.4123 47.4484 13.0627 46.526 10.9982C45.5248 8.75719 43.9247 6.89195 41.899 5.60409C40.0952 4.45736 37.9941 3.79313 35.823 3.6831C33.746 3.57751 31.6885 3.97511 29.8741 4.83239C25.5157 6.89153 23.8172 11.0892 23.092 12.8816C22.4245 14.5314 22.2964 15.6075 21.9869 18.2075C21.8831 19.0788 21.7656 20.0664 21.6028 21.2886C21.0768 25.2356 20.3839 29.277 19.5433 33.3009Z" fill="#F99201"/>
<path d="M38.735 28.9596L40.8321 31.9249C36.8613 32.9965 31.6816 34.3227 27.9239 35.6386C26.7587 36.0466 25.8176 36.3909 24.9874 36.6947C22.3602 37.6559 21.0417 38.1383 18.808 38.3303C16.6722 38.5138 10.9987 39.0013 6.13141 35.2379C1.86585 31.9399 -0.455102 26.545 0.0745519 21.1585C0.657233 15.232 4.70918 9.98412 10.3973 7.78907C14.1977 6.32242 17.7384 6.64736 20.0394 7.17821L19.3182 10.2879C17.4545 9.85797 14.5943 9.59179 11.5523 10.7659C9.44748 11.5782 7.48819 13.0091 6.03538 14.7953C4.4582 16.7343 3.49843 19.0423 3.25974 21.4699C3.04713 23.6317 3.41005 25.8404 4.30927 27.8574C5.16925 29.7869 6.47766 31.4671 8.09244 32.7154C11.9708 35.714 16.5695 35.3189 18.5333 35.1503C20.3408 34.9949 21.3784 34.6153 23.885 33.6981C24.7252 33.3908 25.6773 33.0424 26.8637 32.6269C30.695 31.2854 34.6891 30.0516 38.735 28.9596Z" fill="#5DC9F1"/>
<path d="M24.9121 13.7733L26.4332 10.5131C26.8794 10.9594 27.3453 11.4278 27.8251 11.9103C30.4149 14.5142 33.4115 17.5272 35.9085 19.6806C36.8222 20.4686 37.5733 21.0982 38.2363 21.6538L38.2453 21.6613C40.307 23.3893 40.406 23.5042 42.5247 25.9644L42.6592 26.1205C43.8575 27.8513 47.0402 32.4486 46.1846 38.4677C45.4349 43.7428 41.939 48.3995 37.0614 50.6207C31.6946 53.0645 25.2194 52.2124 20.565 48.4498C17.4551 45.9359 16.0084 42.7546 15.3423 40.5285L18.3608 39.6006C18.9003 41.4037 20.0659 43.9754 22.5552 45.9875C24.2775 47.3799 26.4595 48.341 28.6993 48.6939C31.1307 49.0769 33.578 48.7503 35.7763 47.7492C37.7339 46.8579 39.4512 45.4523 40.7428 43.6844C41.9787 41.9935 42.7818 40.0436 43.0656 38.0468C43.7474 33.2507 41.1675 29.5242 40.0658 27.9328C39.0519 26.4681 38.2206 25.7714 36.2125 24.0885L36.2097 24.0862C35.5375 23.5227 34.7755 22.8841 33.8424 22.0793C30.8248 19.4771 27.8202 16.6825 24.9121 13.7733Z" fill="#A1D10E"/>
<path d="M24.9121 13.7733L26.4332 10.5131C26.8794 10.9594 27.3453 11.4278 27.8251 11.9103C30.4149 14.5142 33.4115 17.5272 35.9085 19.6806C36.8222 20.4686 37.5733 21.0982 38.2363 21.6538L38.2453 21.6613C40.307 23.3893 40.406 23.5042 42.5247 25.9644L42.6592 26.1205C43.8575 27.8513 47.0402 32.4486 46.1846 38.4677C45.4349 43.7428 41.939 48.3995 37.0614 50.6207C31.6946 53.0645 25.2194 52.2124 20.565 48.4498C17.4551 45.9359 16.0084 42.7546 15.3423 40.5285L18.3608 39.6006C18.9003 41.4037 20.0659 43.9754 22.5552 45.9875C24.2775 47.3799 26.4595 48.341 28.6993 48.6939C31.1307 49.0769 33.578 48.7503 35.7763 47.7492C37.7339 46.8579 39.4512 45.4523 40.7428 43.6844C41.9787 41.9935 42.7818 40.0436 43.0656 38.0468C43.7474 33.2507 41.1675 29.5242 40.0658 27.9328C39.0519 26.4681 38.2206 25.7714 36.2125 24.0885L36.2097 24.0862C35.5375 23.5227 34.7755 22.8841 33.8424 22.0793C30.8248 19.4771 27.8202 16.6825 24.9121 13.7733Z" stroke="#A1D10E"/>
</svg>
